<svg xmlns="http://www.w3.org/2000/svg" viewBox="0 0 900 260" width="900" height="260" font-family="'JetBrains Mono','DejaVu Sans Mono',ui-monospace,monospace">
  <!-- hard offset shadow -->
  <rect x="22" y="24" width="846" height="208" fill="#181818"/>
  <!-- paper card -->
  <rect x="14" y="16" width="846" height="208" fill="#F3EFE6" stroke="#181818" stroke-width="3"/>

  <!-- top label -->
  <rect x="46" y="44" width="14" height="14" fill="#FF4D1C"/>
  <text x="70" y="56" font-size="13" letter-spacing="3" fill="#181818" font-weight="700">SOFTWARE ENGINEER</text>
  <text x="826" y="56" font-size="12" fill="#8a8175" text-anchor="end" letter-spacing="1">PH · CS</text>

  <!-- name -->
  <text x="44" y="124" font-size="56" font-weight="700" fill="#181818" letter-spacing="-1">KYLLE HARDIN</text>

  <!-- subtitle -->
  <text x="46" y="156" font-size="15" fill="#3a352e">I build things that help or entertain — web apps, audio toys, agent tooling.</text>

  <!-- step-sequencer strip (THUMP nod) -->
  <g>
    <rect x="46" y="178" width="22" height="22" fill="#FF4D1C" stroke="#181818" stroke-width="2"/>
    <rect x="74" y="178" width="22" height="22" fill="#F3EFE6" stroke="#181818" stroke-width="2"/>
    <rect x="102" y="178" width="22" height="22" fill="#F3EFE6" stroke="#181818" stroke-width="2"/>
    <rect x="130" y="178" width="22" height="22" fill="#FF4D1C" stroke="#181818" stroke-width="2"/>
    <rect x="158" y="178" width="22" height="22" fill="#F3EFE6" stroke="#181818" stroke-width="2"/>
    <rect x="186" y="178" width="22" height="22" fill="#181818" stroke="#181818" stroke-width="2"/>
    <rect x="214" y="178" width="22" height="22" fill="#F3EFE6" stroke="#181818" stroke-width="2"/>
    <rect x="242" y="178" width="22" height="22" fill="#FF4D1C" stroke="#181818" stroke-width="2"/>
    <rect x="270" y="178" width="22" height="22" fill="#F3EFE6" stroke="#181818" stroke-width="2"/>
    <rect x="298" y="178" width="22" height="22" fill="#F3EFE6" stroke="#181818" stroke-width="2"/>
    <rect x="326" y="178" width="22" height="22" fill="#FF4D1C" stroke="#181818" stroke-width="2"/>
    <rect x="354" y="178" width="22" height="22" fill="#181818" stroke="#181818" stroke-width="2"/>
  </g>

  <!-- url plate bottom-right -->
  <text x="826" y="196" font-size="13" fill="#181818" text-anchor="end" font-weight="700">kyllehardin.vercel.app</text>
</svg>
